# xmcd
#
# Track frame offsets:
# 150
# 7060
# 27508
# 47849
# 65459
# 81149
# 100054
# 120577
# 137899
# 156702
# 177499
# 194523
# 211331
# 233451
# 252303
#
# Disc length: 3630 seconds
#
#
# Revision: 0
# Processed by: cddbd v1.5.2PL0 Copyright (c) Steve Scherf et al.
# Submitted via: FreeRIP 2.96 
#
DISCID=d60e2c0f
DTITLE=Lloyd - Street Love
DYEAR=2007
DGENRE=R&B
TTITLE0=Intro
TTITLE1=You (Feat. Lil Wayne)
TTITLE2=Certified
TTITLE3=I Don't Mind
TTITLE4=Get It Shawty
TTITLE5=Incredible
TTITLE6=Valentine
TTITLE7=Hazel
TTITLE8=Players Prayer
TTITLE9=Killing Me
TTITLE10=Take You Home
TTITLE11=What You Wanna Do
TTITLE12=Streetlove
TTITLE13=One For Me
TTITLE14=You (Remix)(Feat. Andre 3000 and Nas)
EXTD=
EXTT0=
EXTT1=
EXTT2=
EXTT3=
EXTT4=
EXTT5=
EXTT6=
EXTT7=
EXTT8=
EXTT9=
EXTT10=
EXTT11=
EXTT12=
EXTT13=
EXTT14=
PLAYORDER=
